<?xml version="1.0" standalone="no"?>
<!DOCTYPE svg PUBLIC "-//W3C//DTD SVG 20010904//EN"
 "http://www.w3.org/TR/2001/REC-SVG-20010904/DTD/svg10.dtd">
<svg version="1.0" xmlns="http://www.w3.org/2000/svg"
 width="512.000000pt" height="512.000000pt" viewBox="0 0 512.000000 512.000000"
 preserveAspectRatio="xMidYMid meet">

<g transform="translate(0.000000,512.000000) scale(0.100000,-0.100000)"
fill="#000000" stroke="none">
<path d="M1172 4258 l3 -93 100 -12 c55 -6 161 -17 235 -24 74 -7 140 -17 147
-23 8 -8 13 -178 19 -638 l7 -628 243 0 244 0 0 493 c0 270 3 563 7 650 l6
157 196 0 c230 0 398 -14 496 -41 253 -69 395 -182 494 -392 44 -96 60 -163
73 -310 18 -195 -10 -388 -76 -540 -8 -16 6 -17 245 -15 l253 3 27 78 c15 43
30 97 34 120 4 23 10 51 13 62 3 11 7 83 9 160 4 121 1 157 -20 261 -25 124
-81 263 -132 330 -14 18 -25 36 -25 41 0 19 -161 172 -226 215 -72 48 -191
110 -234 123 -14 4 -38 13 -55 20 -44 20 -145 45 -275 68 -109 19 -160 21
-963 24 l-848 4 3 -93z"/>
<path d="M2535 2603 c-41 -9 -69 -29 -82 -60 -11 -28 -11 -38 1 -68 13 -30 22
-36 73 -50 102 -27 107 -30 122 -57 14 -25 14 -29 -5 -55 -45 -60 -144 -51
-179 17 -21 40 -35 30 -35 -25 0 -40 19 -73 27 -48 3 7 17 6 43 -4 50 -20 121
-10 158 22 22 19 27 31 27 70 0 58 -22 79 -103 95 -81 17 -104 34 -100 73 2
26 10 36 40 50 33 16 40 17 72 3 22 -9 40 -26 46 -41 14 -36 34 -27 38 16 2
35 -15 74 -24 53 -3 -8 -15 -8 -42 2 -39 14 -45 14 -77 7z"/>
<path d="M3237 2595 c-20 -7 -45 -19 -54 -26 -28 -23 -53 -91 -53 -144 0 -169
164 -245 264 -122 26 33 31 48 34 105 3 55 -1 75 -20 112 -35 69 -104 99 -171
75z m112 -49 c102 -91 35 -298 -88 -271 -34 7 -88 63 -97 101 -10 40 2 114 23
143 26 35 81 62 112 54 15 -3 37 -15 50 -27z"/>
<path d="M3595 2595 c-73 -26 -112 -107 -99 -205 12 -94 101 -162 188 -146 39
8 96 50 96 72 0 19 -6 18 -45 -11 -99 -76 -211 -7 -209 128 1 67 21 103 75
129 56 28 127 -2 153 -65 8 -20 26 14 26 48 0 39 -16 66 -29 47 -7 -11 -16
-11 -55 2 -55 19 -50 19 -101 1z"/>
<path d="M1357 2593 c-14 -13 -6 -23 18 -23 l25 0 0 -145 0 -145 -25 0 c-16 0
-25 -6 -25 -15 0 -12 17 -15 90 -15 73 0 90 3 90 15 0 11 -12 15 -50 15 l-50
0 0 55 0 55 50 0 c66 0 115 21 134 59 31 59 12 111 -50 137 -34 14 -195 20
-207 7z m220 -57 c12 -15 23 -33 23 -41 0 -8 -11 -26 -23 -41 -20 -23 -34 -28
-85 -32 l-62 -4 0 77 0 77 62 -4 c51 -4 65 -9 85 -32z"/>
<path d="M1725 2590 c-8 -13 8 -18 60 -22 l40 -3 0 -140 0 -140 -48 -5 c-89
-9 -50 -25 63 -25 67 0 110 4 110 10 0 6 -20 11 -45 13 l-45 3 0 144 0 144 48
3 c26 2 47 8 47 13 0 14 -221 19 -230 5z"/>
<path d="M2047 2594 c-10 -11 3 -24 24 -24 18 0 19 -8 19 -144 0 -138 -1 -145
-20 -148 -12 -2 -21 -7 -20 -13 0 -6 57 -11 145 -13 l146 -3 -3 57 c-4 72 -28
89 -28 20 l0 -46 -95 0 -96 0 3 68 3 67 40 0 c34 0 40 -3 43 -22 8 -58 36 -4
30 57 -3 37 -28 55 -28 21 0 -18 -6 -21 -45 -21 l-45 0 0 60 0 60 84 0 85 0 3
-37 c5 -62 28 -53 28 11 l0 56 -133 0 c-74 0 -137 -3 -140 -6z"/>
<path d="M2785 2590 c-4 -7 1 -14 14 -17 20 -5 21 -11 21 -148 0 -139 -1 -143
-22 -149 -17 -4 -20 -8 -11 -17 7 -7 45 -10 108 -7 l96 3 39 41 c68 73 65 192
-6 264 -34 35 -35 35 -133 38 -67 3 -101 0 -106 -8z m196 -36 c43 -22 73 -93
65 -151 -11 -83 -58 -123 -146 -123 l-50 0 0 145 0 145 50 0 c28 0 65 -7 81
-16z"/>
<path d="M1677 1693 c-4 -174 -7 -399 -7 -499 0 -104 -4 -185 -9 -189 -6 -3
-76 -12 -158 -20 -81 -8 -184 -20 -228 -25 -44 -6 -85 -10 -92 -10 -10 0 -13
-25 -13 -95 l0 -95 755 0 755 0 0 95 c0 64 -4 95 -11 95 -6 0 -57 6 -113 14
-55 8 -157 20 -224 26 -68 6 -130 14 -136 16 -20 8 -26 146 -26 596 l0 408
-243 0 -244 0 -6 -317z"/>
</g>
</svg>
